PathFileType	4	(X/Y/Z)	C:\Users\86182\Documents\cortex\Trimmed_M4_H2.trc
DataRate	CameraRate	NumFrames	NumMarkers	Units	OrigDataRate	OrigDataStartFrame	OrigNumFrames
100.00	100.00	       72	2	mm	100.00	1	       901
Frame#	Time	gripper			box			
		X1	Y1	Z1	X2	Y2	Z2	

1	0.000	277.16483	150.03253	192.55746	280.74786	146.72728	57.61301	
2	0.010	277.16483	150.03255	192.55743	280.74771	146.72768	57.61345	
3	0.020	277.16479	150.03256	192.55737	280.74777	146.72792	57.61392	
4	0.030	277.16479	150.03258	192.55731	280.74829	146.72766	57.61420	
5	0.040	277.16479	150.03259	192.55724	280.74933	146.72679	57.61417	
6	0.050	277.16479	150.03262	192.55717	280.75082	146.72534	57.61377	
7	0.060	277.16476	150.03262	192.55716	280.75256	146.72346	57.61306	
8	0.070	277.16479	150.03262	192.55717	280.75433	146.72147	57.61216	
9	0.080	277.16479	150.03261	192.55724	280.75583	146.71968	57.61122	
10	0.090	277.16479	150.03258	192.55730	280.75681	146.71837	57.61041	
11	0.100	277.16483	150.03256	192.55737	280.75726	146.71765	57.60985	
12	0.110	277.16483	150.03255	192.55742	280.75726	146.71750	57.60960	
13	0.120	277.16483	150.03255	192.55746	280.75690	146.71785	57.60968	
14	0.130	277.16483	150.03253	192.55748	280.75610	146.71867	57.61000	
15	0.140	277.16483	150.03253	192.55748	280.75485	146.71996	57.61041	
16	0.150	277.16483	150.03255	192.55745	280.75305	146.72165	57.61075	
17	0.160	277.16483	150.03256	192.55737	280.75049	146.72379	57.61084	
18	0.170	277.16479	150.03259	192.55725	280.74698	146.72661	57.61074	
19	0.180	277.16476	150.03264	192.55708	280.74222	146.73047	57.61068	
20	0.190	277.16473	150.03268	192.55685	280.73627	146.73552	57.61100	
21	0.200	277.16470	150.03275	192.55663	280.72974	146.74147	57.61199	
22	0.210	277.16464	150.03279	192.55641	280.72342	146.74776	57.61383	
23	0.220	277.16464	150.03282	192.55627	280.71820	146.75360	57.61636	
24	0.230	277.16461	150.03284	192.55621	280.71454	146.75827	57.61909	
25	0.240	277.16461	150.03284	192.55627	280.71265	146.76126	57.62143	
26	0.250	277.16461	150.03282	192.55644	280.71234	146.76251	57.62305	
27	0.260	277.16461	150.03279	192.55667	280.71307	146.76247	57.62396	
28	0.270	277.16458	150.03279	192.55687	280.71399	146.76196	57.62436	
29	0.280	277.16455	150.03282	192.55701	280.71454	146.76154	57.62440	
30	0.290	277.16452	150.03290	192.55707	280.71484	146.76106	57.62405	
31	0.300	277.16449	150.03297	192.55707	280.71539	146.76009	57.62320	
32	0.310	277.16449	150.03302	192.55702	280.71671	146.75816	57.62180	
33	0.320	277.16455	150.03304	192.55699	280.71921	146.75499	57.61996	
34	0.330	277.16464	150.03297	192.55702	280.72296	146.75072	57.61803	
35	0.340	277.16470	150.03288	192.55710	280.72763	146.74597	57.61649	
36	0.350	277.16476	150.03278	192.55719	280.73218	146.74174	57.61567	
37	0.360	277.16479	150.03268	192.55730	280.73560	146.73891	57.61563	
38	0.370	277.16483	150.03261	192.55737	280.73755	146.73770	57.61622	
39	0.380	277.16486	150.03256	192.55743	280.73822	146.73775	57.61719	
40	0.390	277.16486	150.03253	192.55748	280.73816	146.73846	57.61826	
41	0.400	277.16486	150.03252	192.55750	280.73776	146.73938	57.61924	
42	0.410	277.16486	150.03252	192.55750	280.73715	146.74040	57.62007	
43	0.420	277.16483	150.03252	192.55748	280.73618	146.74165	57.62082	
44	0.430	277.16483	150.03253	192.55742	280.73492	146.74309	57.62147	
45	0.440	277.16479	150.03256	192.55731	280.73389	146.74416	57.62183	
46	0.450	277.16476	150.03261	192.55716	280.73383	146.74408	57.62164	
47	0.460	277.16476	150.03267	192.55696	280.73514	146.74245	57.62072	
48	0.470	277.16473	150.03273	192.55673	280.73776	146.73930	57.61913	
49	0.480	277.16470	150.03279	192.55653	280.74133	146.73514	57.61707	
50	0.490	277.16470	150.03284	192.55641	280.74512	146.73070	57.61491	
51	0.500	277.16470	150.03284	192.55643	280.74841	146.72682	57.61301	
52	0.510	277.16476	150.03281	192.55656	280.75064	146.72415	57.61161	
53	0.520	277.16479	150.03278	192.55675	280.75137	146.72302	57.61076	
54	0.530	277.16479	150.03273	192.55687	280.75055	146.72351	57.61049	
55	0.540	277.16473	150.03270	192.55685	280.74844	146.72545	57.61081	
56	0.550	277.16458	150.03267	192.55669	280.74548	146.72841	57.61168	
57	0.560	277.16431	150.03267	192.55630	280.74210	146.73193	57.61292	
58	0.570	277.16391	150.03267	192.55571	280.73853	146.73572	57.61430	
59	0.580	277.16342	150.03268	192.55490	280.73489	146.73955	57.61569	
60	0.590	277.16287	150.03271	192.55400	280.73148	146.74315	57.61701	
61	0.600	277.16241	150.03273	192.55324	280.72873	146.74617	57.61827	
62	0.610	277.16223	150.03273	192.55295	280.72675	146.74857	57.61950	
63	0.620	277.16241	150.03271	192.55330	280.72528	146.75046	57.62064	
64	0.630	277.16290	150.03267	192.55414	280.72418	146.75194	57.62160	
65	0.640	277.16345	150.03264	192.55510	280.72336	146.75305	57.62228	
66	0.650	277.16397	150.03261	192.55594	280.72269	146.75388	57.62275	
67	0.660	277.16434	150.03261	192.55653	280.72198	146.75467	57.62311	
68	0.670	277.16458	150.03264	192.55682	280.72104	146.75560	57.62334	
69	0.680	277.16470	150.03271	192.55681	280.71957	146.75685	57.62347	
70	0.690	277.16473	150.03281	192.55656	280.71753	146.75861	57.62358	
71	0.700	277.16467	150.03293	192.55615	280.71506	146.76071	57.62375	
72	0.710	277.16461	150.03304	192.55571	280.71286	146.76263	57.62395	
